<?xml version="1.0" encoding="UTF-8" standalone="no"?>
<!DOCTYPE svg PUBLIC "-//W3C//DTD SVG 1.1//EN" "http://www.w3.org/Graphics/SVG/1.1/DTD/svg11.dtd">
<svg xmlns="http://www.w3.org/2000/svg">
<metadata>
This is a custom SVG webfont generated by Font Squirrel.
Copyright   : Copyright  2011 Hyundai Motor Company and YoonDesign Inc All rights reserved
Designer    : YoonDesign Inc
Foundry     : YoonDesign Inc
Foundry URL : httpwwwyoonfontcokr
</metadata>
<defs>
<font id="ModernHBold" horiz-adv-x="1064">
<font-face units-per-em="2048" ascent="1638" descent="-410"/>
<missing-glyph horiz-adv-x="614"/>
<glyph unicode=" " horiz-adv-x="614"/>
<glyph unicode="	" horiz-adv-x="614"/>
<glyph unicode=" " horiz-adv-x="614"/>
<glyph unicode="!" horiz-adv-x="710" d="M217 1516h277l-37 -1080h-207zM221 -61v260h260v-260h-260z"/>
<glyph unicode="&quot;" horiz-adv-x="927" d="M147 1538h246l-26 -555h-86q-51 0 -79 29.5t-30 72.5zM510 1538h246l-27 -555h-84q-53 0 -80.5 29.5t-29.5 74.5z"/>
<glyph unicode="#" horiz-adv-x="1425" d="M57 350v189h246l59 372h-196v191h227l64 393h239l-63 -393h282l64 393h240l-64 -393h211v-103q0 -49 -21.5 -68.5t-74.5 -19.5h-146l-59 -372h195v-103q0 -49 -21.5 -67.5t-75.5 -18.5h-129l-55 -344q-16 -96 -105 -96h-147l70 440h-285l-55 -344q-6 -45 -35 -70.5 t-70 -25.5h-147l69 440h-217zM543 539h282l60 372h-283z"/>
<glyph unicode="$" horiz-adv-x="1095" d="M82 0v84q0 55 30.5 80.5t110.5 25.5h228v453l-97 43q-268 119 -268 369q0 150 90 238.5t275 107.5v155h215v-151h292v-84q0 -70 -29.5 -89.5t-109.5 -19.5h-153v-442l51 -25q170 -80 235.5 -165.5t65.5 -214.5q0 -305 -352 -357v-158h-134q-45 0 -63 24t-18 79v47h-369z M322 1055q0 -113 129 -183v330q-129 -28 -129 -147zM666 207q117 39 116 155q0 111 -116 181v-336z"/>
<glyph unicode="%" horiz-adv-x="1777" d="M74 1090q0 168 89 261t257 93q166 0 257 -93.5t91 -260.5q0 -164 -91 -258.5t-257 -94.5q-168 0 -257 91.5t-89 261.5zM307 1090q0 -162 113 -162q66 0 88 42t22 119.5t-22.5 120.5t-87.5 43q-113 1 -113 -163zM410 -61l708 1527h250l-676 -1454q-35 -74 -123 -73h-159z M1006 309q0 168 90 260.5t258 92.5q164 0 256 -92.5t92 -260.5t-91 -260t-257 -92q-168 0 -258 91t-90 261zM1241 309q0 -164 113 -164q111 0 110.5 164t-110.5 164q-113 0 -113 -164z"/>
<glyph unicode="&amp;" horiz-adv-x="1458" d="M76 322q0 225 225 376l113 76l-78 94q-41 49 -64.5 83t-46 90.5t-22.5 113.5q0 150 106.5 245t313.5 95q190 0 303.5 -100.5t113.5 -251.5q0 -184 -170 -305l-145 -103l291 -336q37 104 37 250l217 -24q-2 -236 -99 -400q43 -47 131.5 -151.5t116.5 -134.5h-276l-103 112 q-184 -141 -448 -141q-260 0 -388 119t-128 293zM313 319q0 -100 78 -159.5t201 -59.5q188 0 307 109l-350 412q-16 -10 -115 -82q-121 -89 -121 -220zM440 1151q-2 -61 60 -139l96 -117l121 82q86 59 86 166q0 68 -49 114t-131 46q-84 0 -131.5 -41t-51.5 -111z"/>
<glyph unicode="'" horiz-adv-x="626" d="M193 1538h245l-26 -555h-82q-51 0 -79 29.5t-32 74.5z"/>
<glyph unicode="(" horiz-adv-x="815" d="M174 721q0 178 16 315q45 354 347 531l129 -140q-207 -123 -244 -397q-16 -113 -16 -309q0 -193 16 -307q14 -119 78.5 -228.5t165.5 -167.5l-127 -143q-143 72 -236.5 219.5t-112.5 313.5q-16 114 -16 313z"/>
<glyph unicode=")" horiz-adv-x="823" d="M152 18q100 57 164.5 167t78.5 229q16 115 17 307q0 197 -17 309q-37 274 -243 397l129 140q301 -176 346 -531q16 -137 16 -315q0 -199 -16 -313q-18 -166 -111.5 -313.5t-236.5 -219.5z"/>
<glyph unicode="*" horiz-adv-x="1198" d="M129 938l307 123l-301 145l129 209l256 -190l-28 315h243l-24 -315l262 192l114 -213l-292 -131l292 -135l-118 -209l-256 174l28 -299h-247l26 295l-262 -168z"/>
<glyph unicode="+" horiz-adv-x="1236" d="M113 598v193h385v389h239v-389h389v-193h-389v-397h-239v397h-385z"/>
<glyph unicode="," horiz-adv-x="565" d="M135 -266q119 63 119 168v37h-113v260h287v-242q0 -109 -54.5 -196t-154.5 -128z"/>
<glyph unicode="-" horiz-adv-x="1144" d="M135 600v193h877v-193h-877z"/>
<glyph unicode="." horiz-adv-x="559" d="M150 -61v260h258v-260h-258z"/>
<glyph unicode="/" horiz-adv-x="1032" d="M117 -106l573 1644h240l-576 -1644h-237z"/>
<glyph unicode="0" d="M66 707q0 406 98 597t366 191q117 0 199 -34t134 -94t82 -161.5t41 -217.5t11 -281q0 -432 -102 -614.5t-365 -182.5q-264 0 -364 189.5t-100 607.5zM303 707q0 -123 4 -206t17.5 -165t38 -129t66.5 -77t101 -30q63 0 107.5 30t68 76t37 131t16.5 163t3 207 q0 125 -3 200.5t-16.5 159.5t-37 130t-67.5 76t-108 30q-74 0 -121 -40t-69.5 -128t-29.5 -182t-7 -246z"/>
<glyph unicode="1" d="M229 1276v190h377q98 0 99 -90v-1437h-113q-66 0 -94.5 31.5t-28.5 101.5v1204h-240z"/>
<glyph unicode="2" d="M78 78v207q0 164 141 262l387 262q78 53 103.5 111.5t25.5 150.5q0 106 -72.5 170t-199.5 64q-170 0 -357 -50v193q182 47 357 47q233 0 371.5 -112.5t138.5 -311.5q-2 -264 -219 -412l-379 -256q-61 -43 -62 -131v-141h668v-78q0 -115 -129 -114h-619q-88 0 -121.5 28.5 t-33.5 110.5z"/>
<glyph unicode="3" d="M86 27q0 55 33 79.5t94 14.5q106 -14 207 -15q326 0 325 279q0 141 -63.5 194.5t-206.5 53.5h-213q-45 0 -63.5 15.5t-18.5 56.5v120h295q133 0 184.5 60.5t51.5 206.5q0 98 -70 155.5t-186 57.5q-152 0 -332 -45v188q178 47 334 47q221 0 357 -100.5t132 -307.5 q-2 -248 -168 -348q98 -47 151.5 -138t53.5 -204q0 -252 -150.5 -371.5t-412.5 -115.5q-137 0 -334 33v84z"/>
<glyph unicode="4" d="M37 190v181l500 997q47 98 165 98h197v-1087h127v-90q0 -98 -104 -99h-23v-251h-111q-66 0 -92 31.5t-26 101.5v118h-633zM274 379h396v799z"/>
<glyph unicode="5" d="M98 29q0 55 36 73.5t79 12.5q117 -8 221 -13q150 -4 224.5 81t74.5 243q0 115 -50 186.5t-191 71.5h-369v782h815v-92q0 -98 -115 -98h-463v-399h144q254 0 360.5 -117t106.5 -334q0 -252 -133 -384t-400 -132q-166 0 -340 31v88z"/>
<glyph unicode="6" d="M76 328v567q0 571 520 571q133 0 326 -22v-94q0 -41 -17.5 -61.5t-36 -23.5t-51.5 -3q-137 10 -219 10q-80 0 -138.5 -26.5t-87 -61.5t-45 -89.5t-19.5 -91t-3 -85.5v-87q86 94 242 95q219 0 329.5 -106.5t110.5 -303.5v-188q0 -205 -116.5 -311.5t-333.5 -106.5 q-219 0 -340 105.5t-121 312.5zM305 352q0 -131 52.5 -188.5t179.5 -57.5q219 0 219 248v138q0 129 -52.5 182t-160.5 53q-121 0 -179.5 -53t-58.5 -176v-146z"/>
<glyph unicode="7" d="M96 1276v190h791q92 0 92 -75v-80q0 -37 -27 -109l-420 -1186q-27 -78 -108 -77h-154l478 1337h-652z"/>
<glyph unicode="8" d="M43 356q0 166 54.5 256t154.5 146q-174 96 -174 313q0 219 119.5 321.5t332.5 102.5q211 0 334 -104.5t123 -317.5q0 -96 -49 -189t-125 -130q209 -96 209 -385q0 -215 -118 -337t-369 -122q-233 0 -362.5 112.5t-129.5 333.5zM281 375q0 -129 65.5 -202t188.5 -73 q131 0 190 78t59 195q0 143 -57 214.5t-197 71.5q-249 1 -249 -284zM315 1073q0 -236 213 -235q223 0 224 235q0 115 -61.5 172.5t-158.5 57.5q-102 0 -159.5 -57.5t-57.5 -172.5z"/>
<glyph unicode="9" d="M76 889v188q0 205 116.5 311.5t333.5 106.5q219 0 340 -105.5t121 -312.5v-559q0 -580 -520 -579q-133 0 -326 22v94q0 57 28 73.5t77 14.5q137 -10 219 -10q80 0 138.5 27.5t87 63.5t45 92.5t19.5 93t3 86.5v77q-86 -94 -242 -94q-219 0 -329.5 106.5t-110.5 303.5z M307 913q0 -129 52.5 -182t160.5 -53q121 0 179.5 53t58.5 176v146q0 131 -52.5 188t-179.5 57q-219 0 -219 -247v-138z"/>
<glyph unicode=":" horiz-adv-x="559" d="M150 184v260h258v-260h-258zM150 963v262h258v-262h-258z"/>
<glyph unicode=";" horiz-adv-x="565" d="M94 12l72 432h256l-191 -548h-73q-84 -1 -64 116zM150 963v262h258v-262h-258z"/>
<glyph unicode="&lt;" horiz-adv-x="1024" d="M131 700l592 654l168 -140l-471 -514l467 -516l-164 -147z"/>
<glyph unicode="=" horiz-adv-x="1200" d="M162 397v193h876v-193h-876zM162 856v193h876v-193h-876z"/>
<glyph unicode="&gt;" horiz-adv-x="1024" d="M131 1214l168 140l592 -654l-592 -663l-164 147l467 516z"/>
<glyph unicode="?" horiz-adv-x="1112" d="M88 1448q213 68 385 68q233 0 386 -108t153 -288q0 -246 -195 -385l-170 -121q-31 -23 -39 -51t-8 -86v-106h-235v110q0 100 19 160.5t73 97.5l180 123q137 94 137 252q0 94 -83 151.5t-214 57.5q-154 0 -379 -68zM352 -61v260h258v-260h-258z"/>
<glyph unicode="@" horiz-adv-x="1875" d="M74 702q0 381 232.5 621t658.5 240q397 0 615 -215t218 -562q0 -246 -140 -408.5t-374 -162.5h-412q-154 0 -247 76t-93 198v101q0 139 92.5 208.5t258.5 69.5q94 0 213 -10v55q0 45 -21.5 66.5t-81.5 21.5h-272q-68 0 -91.5 23t-23.5 76v94h416q166 0 238.5 -77 t72.5 -224v-473q98 20 162 118.5t64 245.5q0 264 -147.5 425t-450.5 161q-313 0 -481.5 -190.5t-168.5 -481.5q0 -293 157 -462.5t484 -169.5q188 0 385 63l33 -113q18 -63 -41 -86q-193 -57 -407 -57q-414 0 -631 226t-217 603zM772 506q0 -53 33 -75.5t106 -22.5h185v260 q-90 10 -185 10q-74 0 -106.5 -20.5t-32.5 -73.5v-78z"/>
<glyph unicode="A" horiz-adv-x="1368" d="M35 -61l512 1527h184q41 0 74 -24.5t43 -59.5l487 -1443h-243l-164 510q-63 -72 -174 -72h-334l-139 -438h-246zM483 575h400l-199 621z"/>
<glyph unicode="B" horiz-adv-x="1318" d="M150 -61v1527h598q207 0 312 -100t105 -264v-96q0 -84 -40 -160t-107 -111q90 -37 139 -111.5t49 -166.5v-135q0 -193 -131 -288t-327 -95h-598zM387 131h358q109 0 165.5 57.5t56.5 143.5v96q0 88 -54.5 145.5t-164.5 57.5h-361v-500zM387 825h363q96 0 137 55.5 t41 133.5v78q0 78 -46 129t-132 51h-363v-447z"/>
<glyph unicode="C" horiz-adv-x="1193" d="M125 340v731q0 184 124 289.5t345 105.5h506v-73q0 -59 -31 -90t-121 -31h-348q-236 0 -235 -228v-690q0 -94 50 -158.5t140 -64.5h565v-76q0 -53 -32.5 -84.5t-120.5 -31.5h-420q-184 0 -303 110.5t-119 290.5z"/>
<glyph unicode="D" horiz-adv-x="1361" d="M152 -61v1527h565q254 0 385 -121.5t131 -320.5v-647q0 -199 -131 -318.5t-385 -119.5h-565zM389 131h328q129 0 203.5 65.5t74.5 180.5v647q0 119 -73.5 183.5t-204.5 64.5h-328v-1141z"/>
<glyph unicode="E" horiz-adv-x="1232" d="M152 -61v1527h966v-69q0 -63 -26.5 -94t-104.5 -31h-596v-430h664v-74q0 -57 -27 -88t-102 -31h-535v-518h752v-74q0 -55 -28 -86.5t-101 -31.5h-862z"/>
<glyph unicode="F" horiz-adv-x="1189" d="M152 68v1398h991v-71q0 -59 -31 -91t-108 -32h-613v-430h686v-74q0 -119 -143 -119h-543v-710h-108q-72 0 -101.5 28.5t-29.5 100.5z"/>
<glyph unicode="G" horiz-adv-x="1376" d="M137 348v715q0 188 127 295.5t322 107.5h622v-71q0 -66 -32.5 -94.5t-112.5 -28.5h-477q-92 0 -150.5 -56.5t-58.5 -152.5v-717q0 -94 54 -154.5t155 -60.5h243q84 0 129.5 56.5t45.5 140.5v247q0 41 -48 41h-163q-76 0 -109 23t-33 86v86h416q94 0 135 -42t41 -130v-311 q0 -190 -111.5 -289.5t-300.5 -99.5h-245q-205 0 -327 105t-122 304z"/>
<glyph unicode="H" horiz-adv-x="1392" d="M152 63v1403h239v-622h604v622h240v-1527h-109q-70 0 -100.5 28.5t-30.5 95.5v642q-45 -53 -153 -54h-451v-712h-110q-70 0 -99.5 28t-29.5 96z"/>
<glyph unicode="I" horiz-adv-x="577" d="M172 63v1403h242v-1527h-113q-70 0 -99.5 28t-29.5 96z"/>
<glyph unicode="J" horiz-adv-x="872" d="M27 18q0 63 30.5 88t106.5 25h127q98 0 142 46t44 157v1132h242v-1132q0 -203 -102.5 -299t-325.5 -96h-264v79z"/>
<glyph unicode="K" horiz-adv-x="1320" d="M152 66v1400h239v-1527h-112q-68 0 -97.5 29.5t-29.5 97.5zM436 727l559 739h291l-561 -737l588 -790h-191q-98 0 -147 69z"/>
<glyph unicode="L" horiz-adv-x="1122" d="M152 -61v1527h239v-1335h694v-74q0 -66 -26.5 -92t-97.5 -26h-809z"/>
<glyph unicode="M" horiz-adv-x="1814" d="M158 51v1415h239l484 -915q8 -14 24.5 -14t24.5 14l483 915h240v-1527h-111q-68 0 -98.5 28.5t-30.5 93.5v953q-55 -100 -166.5 -308t-167.5 -309q-63 -113 -175.5 -112.5t-172.5 110.5l-334 619v-1075h-110q-129 -1 -129 112z"/>
<glyph unicode="N" horiz-adv-x="1386" d="M152 63v1403h639q231 0 336.5 -87t105.5 -320v-1120h-109q-70 0 -100.5 28.5t-30.5 95.5v998q0 121 -44 166t-158 45h-400v-1333h-110q-70 0 -99.5 28t-29.5 96z"/>
<glyph unicode="O" horiz-adv-x="1437" d="M121 549v307q0 311 148.5 475t447.5 164q596 0 596 -639v-309q0 -637 -596 -637q-299 0 -447.5 164t-148.5 475zM360 547q0 -221 90 -329q86 -104 254 -103h12.5h13.5q168 0 254 103q89 108 89 331v309q0 211 -80 313q-47 61 -109.5 91t-167 30t-168 -30.5t-110.5 -94.5 q-78 -111 -78 -311v-309z"/>
<glyph unicode="P" horiz-adv-x="1284" d="M150 63v1403h565q223 0 337.5 -91t114.5 -296v-192q0 -53 -6 -97.5t-32.5 -101.5t-72.5 -95t-134 -65.5t-207 -27.5h-326v-561h-106q-72 0 -102.5 28t-30.5 96zM389 696h326q213 0 213 191v192q0 188 -213 189h-326v-572z"/>
<glyph unicode="Q" horiz-adv-x="1458" d="M121 549v307q0 311 148.5 475t447.5 164q596 0 596 -639v-309q0 -346 -174 -500l217 -283h-168q-100 0 -148 62l-92 115q-100 -31 -231 -31q-299 0 -447.5 164t-148.5 475zM360 547q0 -221 90 -329q86 -104 254 -103h12.5h13.5q168 0 254 103q89 108 89 331v309 q0 215 -84 324.5t-272 109.5q-356 0 -357 -436v-309z"/>
<glyph unicode="R" horiz-adv-x="1316" d="M150 63v1403h608q211 0 323.5 -96t112.5 -252v-162q0 -119 -61.5 -213t-186.5 -129q57 -129 177 -384t137 -291h-261l-294 647h-316v-647h-113q-68 0 -97 28t-29 96zM389 782h369q197 0 196 193v110q0 86 -49 134.5t-147 48.5h-369v-486z"/>
<glyph unicode="S" horiz-adv-x="1183" d="M82 18q0 59 30.5 86t108.5 27h346q283 0 283 207q0 74 -49 129t-166 106l-258 115q-279 123 -279 395q0 178 121 280.5t365 102.5h458v-84q0 -66 -32.5 -88t-110.5 -22h-315q-244 0 -244 -189q0 -78 42 -130t132 -93l246 -110q186 -84 259 -176.5t73 -233.5 q0 -115 -45.5 -197t-123 -124t-163.5 -61t-187 -19h-491v79z"/>
<glyph unicode="T" horiz-adv-x="1234" d="M37 1272v194h1167v-71q0 -68 -26.5 -95.5t-108.5 -27.5h-330v-1333h-110q-68 0 -98.5 28.5t-30.5 95.5v1209h-463z"/>
<glyph unicode="U" horiz-adv-x="1400" d="M154 346v1120h239v-1122q0 -123 44 -168t159 -45h399v1335h240v-1527h-639q-231 0 -336.5 87t-105.5 320z"/>
<glyph unicode="V" horiz-adv-x="1345" d="M27 1466h245l400 -1255q63 203 199.5 629t199.5 626h248l-510 -1527h-174q-98 0 -127 86z"/>
<glyph unicode="W" horiz-adv-x="1869" d="M29 1466h241l269 -1226l284 1095h236l282 -1093l271 1224h241l-360 -1527h-156q-137 0 -170 143l-227 893l-264 -1036h-148q-80 0 -118.5 32.5t-55.5 106.5z"/>
<glyph unicode="X" horiz-adv-x="1374" d="M37 -61l512 766l-504 761h262l373 -559l373 559h266l-502 -761l510 -766h-270l-377 563l-373 -563h-270z"/>
<glyph unicode="Y" horiz-adv-x="1398" d="M33 1466h262l401 -694l404 694h262l-551 -919v-608h-106q-72 0 -103 27.5t-31 96.5v480z"/>
<glyph unicode="Z" horiz-adv-x="1282" d="M68 -61v188l825 1145h-801v194h1077v-182l-827 -1153h862v-117q0 -76 -88 -75h-1048z"/>
<glyph unicode="[" horiz-adv-x="927" d="M272 -156v1774h506v-193h-268v-1390h268v-191h-506z"/>
<glyph unicode="\" horiz-adv-x="1089" d="M123 1538h239l574 -1644h-238z"/>
<glyph unicode="]" horiz-adv-x="927" d="M162 35h266v1390h-266v193h504v-1774h-504v191z"/>
<glyph unicode="^" horiz-adv-x="1286" d="M190 1186l351 485h211l348 -485h-256l-199 280l-196 -280h-259z"/>
<glyph unicode="_" horiz-adv-x="1257" d="M211 -100h844v-193h-844v193z"/>
<glyph unicode="`" horiz-adv-x="677" d="M127 1608l225 106l215 -510l-71 -33q-94 -43 -146 48z"/>
<glyph unicode="a" horiz-adv-x="1114" d="M113 246v125q0 170 99 251q95 77 262 77q8 0 18 -1q141 -2 251 -16v68q0 125 -137 124h-266q-88 0 -117.5 28t-29.5 83v80h413q375 0 375 -315v-811h-489q-178 0 -278.5 78.5t-100.5 228.5zM350 254q0 -123 144 -123h249v352q-131 14 -249 15q-76 0 -110 -32t-34 -104 v-108z"/>
<glyph unicode="b" horiz-adv-x="1136" d="M154 -61v1538h237v-412h199q209 0 317.5 -92t108.5 -273v-395q0 -367 -426 -366h-436zM391 131h199q88 0 139 49t51 144v356q0 96 -51 145t-137 49h-201v-743z"/>
<glyph unicode="c" horiz-adv-x="1034" d="M127 319v361q0 176 117.5 280.5t306.5 104.5h391v-70q0 -59 -26.5 -90t-114.5 -31h-250q-186 0 -186 -194v-358q0 -88 49 -139.5t137 -51.5h401v-76q0 -57 -28.5 -86.5t-118.5 -29.5h-254q-190 0 -307 101t-117 279z"/>
<glyph unicode="d" horiz-adv-x="1132" d="M119 305v395q0 180 108.5 272.5t317.5 92.5h200v412h238v-1538h-438q-426 -1 -426 366zM356 324q0 -94 50.5 -143.5t138.5 -49.5h200v743h-202q-86 0 -136.5 -49t-50.5 -145v-356z"/>
<glyph unicode="e" horiz-adv-x="1124" d="M113 305v381q0 207 124.5 307.5t319.5 100.5q203 0 328 -97.5t125 -271.5v-147q0 -78 -45 -125t-134 -47h-481v-101q0 -80 46 -127t116 -47h459v-82q0 -57 -28 -83.5t-118 -26.5h-313q-182 0 -290.5 99t-108.5 267zM350 598h389q14 0 24.5 11.5t10.5 29.5v86 q0 82 -56 129t-161 47q-94 0 -150.5 -48t-56.5 -128v-127z"/>
<glyph unicode="f" horiz-adv-x="894" d="M57 874v191h209v125q0 143 63.5 215t233.5 72h275v-66q0 -125 -150 -125h-125q-59 0 -59 -82v-139h293v-88q0 -51 -41 -77t-94 -26h-158v-935h-109q-70 0 -99.5 28.5t-29.5 98.5v808h-209z"/>
<glyph unicode="g" horiz-adv-x="1148" d="M123 303v399q0 176 109.5 269.5t299.5 93.5h474v-1247q0 -131 -80 -219t-264 -88h-445v81q0 111 139 111h299q115 0 115 119v117h-238q-195 0 -302 94t-107 270zM360 303q0 -96 51.5 -134t120.5 -38h238v743h-238q-84 0 -128 -48t-44 -126v-397z"/>
<glyph unicode="h" horiz-adv-x="1175" d="M152 66v1411h237v-412h266q385 0 385 -344v-782h-106q-70 0 -100.5 28.5t-30.5 98.5v653q0 156 -148 155h-266v-935h-108q-70 0 -99.5 28.5t-29.5 98.5z"/>
<glyph unicode="i" horiz-adv-x="546" d="M147 1360v135h246v-274h-90q-66 0 -111 36.5t-45 102.5zM152 66v999h237v-1126h-106q-72 0 -101.5 28.5t-29.5 98.5z"/>
<glyph unicode="j" horiz-adv-x="669" d="M-23 -410q0 55 35 85t92 30h50q125 0 125 137v1223h237v-1223q0 -332 -362 -331h-177v79zM274 1360v135h246v-274h-90q-68 0 -112 36.5t-44 102.5z"/>
<glyph unicode="k" horiz-adv-x="1175" d="M154 66v1411h237v-1538h-106q-74 0 -102.5 27.5t-28.5 99.5zM432 543l428 522h277l-437 -524l459 -602h-184q-84 0 -131 63z"/>
<glyph unicode="l" horiz-adv-x="550" d="M150 66v1411h237v-1538h-108q-70 0 -99.5 28.5t-29.5 98.5z"/>
<glyph unicode="m" horiz-adv-x="1576" d="M141 66v999h932q188 0 274.5 -78t86.5 -246v-802h-111q-68 0 -97.5 28.5t-29.5 98.5v675q0 133 -123 133h-168v-935h-106q-70 0 -100.5 28.5t-30.5 98.5v808h-289v-935h-111q-68 0 -97.5 28.5t-29.5 98.5z"/>
<glyph unicode="n" horiz-adv-x="1169" d="M143 66v999h494q215 0 302 -82t87 -276v-768h-108q-70 0 -100 28.5t-30 98.5v641q0 96 -32.5 131.5t-118.5 35.5h-256v-935h-105q-72 0 -102.5 28.5t-30.5 98.5z"/>
<glyph unicode="o" horiz-adv-x="1175" d="M123 360v285q0 449 463 449t463 -449v-285q0 -231 -116 -340.5t-347 -109.5q-463 -1 -463 450zM360 360q0 -135 55.5 -197.5t170 -62.5t170 60.5t55.5 199.5v285q0 129 -48 192.5t-177 63.5q-115 0 -170.5 -57.5t-55.5 -188.5v-295z"/>
<glyph unicode="p" horiz-adv-x="1132" d="M141 -330v1395h447q418 0 418 -381v-367q0 -379 -418 -378h-209v-398h-109q-70 0 -99.5 28.5t-29.5 100.5zM379 131h209q180 0 180 186v367q0 190 -180 190h-209v-743z"/>
<glyph unicode="q" horiz-adv-x="1128" d="M127 317v367q0 381 418 381h446v-1524h-106q-72 0 -101.5 29t-29.5 100v269h-209q-418 -1 -418 378zM365 317q0 -186 180 -186h209v743h-209q-180 0 -180 -190v-367z"/>
<glyph unicode="r" horiz-adv-x="856" d="M137 66v710q0 143 73 216t234 73h373v-59q0 -131 -162 -132h-211q-70 0 -69 -98v-837h-109q-70 0 -99.5 28.5t-29.5 98.5z"/>
<glyph unicode="s" horiz-adv-x="970" d="M98 756q0 123 96.5 216t280.5 93h361v-82q0 -57 -35 -83t-113 -26h-213q-72 0 -105.5 -33.5t-33.5 -84.5q0 -92 100 -123l189 -62q262 -80 262 -311q0 -152 -105.5 -236.5t-289.5 -84.5h-388v75q0 117 140 117h248q72 0 114.5 33t42.5 96q0 94 -96 125l-180 59 q-141 47 -208 120t-67 192z"/>
<glyph unicode="t" horiz-adv-x="751" d="M29 874v191h178v369h237v-369h254v-78q0 -55 -31.5 -84t-119.5 -29h-103v-622q0 -121 101 -121h170v-78q0 -115 -148 -114h-51q-166 0 -237.5 77.5t-71.5 235.5v622h-178z"/>
<glyph unicode="u" horiz-adv-x="1150" d="M133 348v717h236v-717q0 -131 40 -174t144 -43h219v934h238v-1126h-457q-223 0 -321.5 91t-98.5 318z"/>
<glyph unicode="v" horiz-adv-x="1060" d="M23 1065h229l280 -866l275 866h223l-373 -1126h-157q-55 0 -86 23.5t-49 76.5z"/>
<glyph unicode="w" horiz-adv-x="1507" d="M10 1065h221l193 -844l221 799h213l219 -797l195 842h221l-289 -1126h-129q-113 0 -141 114l-182 670l-217 -784h-121q-72 0 -100.5 28.5t-45.5 91.5z"/>
<glyph unicode="x" horiz-adv-x="1159" d="M31 -61l409 565l-397 561h258l270 -387l271 387h266l-399 -561l411 -565h-260l-280 397l-283 -397h-266z"/>
<glyph unicode="y" horiz-adv-x="1150" d="M131 305v760h238v-758q0 -92 28 -134q27 -40 94 -40h7q96 2 274 19v913h238v-1245q0 -139 -89.5 -224t-271.5 -85h-467v81q0 66 32 92.5t112 26.5h323q123 0 123 111v133q-111 -10 -280 -16q-11 0 -22 -1q-166 0 -250 91q-89 96 -89 276z"/>
<glyph unicode="z" horiz-adv-x="1034" d="M74 -61v180l577 755h-551v191h822v-180l-580 -754h604v-106q0 -86 -94 -86h-778z"/>
<glyph unicode="{" horiz-adv-x="925" d="M203 637v182q168 4 168 109v418q0 133 68.5 203.5t199.5 70.5h154v-180q-100 -2 -147.5 -22.5t-47.5 -74.5v-403q0 -147 -86 -217q86 -72 86 -209v-389q0 -59 41 -77.5t154 -18.5v-179h-162q-260 0 -260 265v411q0 103 -168 111z"/>
<glyph unicode="|" horiz-adv-x="716" d="M262 -106v1677h219v-1677h-219z"/>
<glyph unicode="}" horiz-adv-x="925" d="M154 29q113 0 153.5 18.5t40.5 77.5v389q0 137 86 209q-86 70 -86 217v403q0 53 -47 74t-147 23v180h153q131 0 199.5 -70.5t68.5 -203.5v-418q0 -104 168 -109v-182q-168 -8 -168 -111v-411q0 -264 -260 -265h-161v179z"/>
<glyph unicode="~" horiz-adv-x="1486" d="M127 518q6 184 106.5 293t274.5 109q111 0 187.5 -47.5t162.5 -147.5q70 -84 141 -84q154 0 162 209h219q0 -178 -93 -289.5t-283 -111.5q-197 0 -330 169q-90 109 -162 109q-74 0 -117 -53t-43 -156h-225z"/>
<glyph unicode="¡" horiz-adv-x="710" d="M217 -111l33 1080h207l37 -1080h-277zM221 1206v260h260v-260h-260z"/>
<glyph unicode="¢" horiz-adv-x="1032" d="M129 319v361q0 174 118 279.5t306 105.5h92l64 248h221l-66 -248h80v-70q0 -57 -24.5 -87.5t-104.5 -33.5l-192 -743h329v-76q0 -57 -28.5 -86.5t-118.5 -29.5h-232l-59 -230h-219l67 264q-109 41 -171 131t-62 215zM367 322q0 -88 49 -142l180 694h-43q-186 0 -186 -194 v-358z"/>
<glyph unicode="£" horiz-adv-x="1169" d="M78 -61v192q68 20 109.5 96t41.5 166v199h-141v190h141v305q0 207 127 307.5t351 100.5q186 0 372 -65l-10 -187q-190 59 -367 60q-238 0 -237 -216v-305h303v-73q0 -55 -29.5 -86t-117.5 -31h-156v-182q0 -172 -82 -279h723v-76q0 -55 -29.5 -85.5t-118.5 -30.5h-880z "/>
<glyph unicode="¤" horiz-adv-x="1173" d="M66 195l120 120q-43 92 -43 228v63q0 129 41 223l-118 125l151 144l111 -115q104 59 270 59q150 0 254 -49l102 105l150 -144l-103 -104q51 -102 52 -244v-63q0 -150 -52 -244l103 -104l-150 -144l-100 103q-104 -49 -256 -50q-168 0 -272 60l-109 -113zM373 543 q0 -125 58 -190.5t167 -65.5t167 65.5t58 190.5v63q0 115 -55 184.5t-170 69.5q-106 0 -165.5 -65.5t-59.5 -188.5v-63z"/>
<glyph unicode="¥" horiz-adv-x="1421" d="M47 1466h262l402 -694l403 694h262l-438 -731h264v-73q0 -57 -28.5 -87t-118.5 -30h-230v-152h377v-76q0 -57 -28.5 -86.5t-118.5 -29.5h-230v-262h-106q-72 0 -102.5 27.5t-30.5 96.5v138h-379v192h379v150l-2 2h-377v190h266z"/>
<glyph unicode="¦" horiz-adv-x="544" d="M164 -61v577h217v-577h-217zM164 893v573h217v-573h-217z"/>
<glyph unicode="§" horiz-adv-x="970" d="M84 651q0 168 143 252q-143 88 -143 258q0 121 96 213t281 92h360v-82q0 -57 -34.5 -82.5t-110.5 -25.5h-215q-139 0 -139 -115q0 -92 100 -123l176 -53q274 -84 274 -311q0 -176 -137 -262q137 -92 137 -246t-105 -241t-290 -87h-387v74q0 117 139 117h248 q72 0 115 35.5t43 101.5q0 84 -96 115l-177 59q-141 47 -209.5 120.5t-68.5 190.5zM322 651q0 -80 71 -112h84q72 0 115 35.5t43 99.5q0 59 -41 94h-133q-72 0 -105.5 -33t-33.5 -84z"/>
<glyph unicode="¨" horiz-adv-x="1118" d="M150 1176v260h258v-260h-258zM709 1176v260h258v-260h-258z"/>
<glyph unicode="©" horiz-adv-x="1777" d="M78 708.5q0 356.5 227 579.5t588 223q358 0 585.5 -223t227.5 -579.5t-227.5 -579.5t-585.5 -223q-360 0 -587.5 223t-227.5 579.5zM274 708.5q0 -278.5 170 -450.5t445 -172q279 0 447.5 171t168.5 452q0 279 -169 448.5t-447 169.5q-274 0 -444.5 -170t-170.5 -448.5z M455 569v258q0 174 118.5 279.5t307.5 105.5h311v-71q0 -59 -27.5 -90t-113.5 -31h-170q-90 0 -139.5 -49t-49.5 -144v-256q0 -88 49.5 -139t139.5 -51h319v-76q0 -55 -29.5 -86t-117.5 -31h-172q-190 0 -308 103.5t-118 277.5z"/>
<glyph unicode="ª" horiz-adv-x="817" d="M94 909v78q0 231 264 232q55 0 129 -9v33q0 53 -59 53h-164q-74 0 -97.5 23.5t-23.5 71.5v75h285q262 0 262 -223v-551h-332q-125 0 -194.5 56.5t-69.5 160.5zM295 915q0 -49 63 -49h129v168q-68 8 -129 8q-63 0 -63 -59v-68z"/>
<glyph unicode="«" horiz-adv-x="1024" d="M84 526l317 551l177 -100l-261 -451l261 -450l-177 -101zM444 526l318 551l176 -100l-260 -451l260 -450l-176 -101z"/>
<glyph unicode="¬" horiz-adv-x="1300" d="M82 831v193h1098v-586h-238v393h-860z"/>
<glyph unicode="­" horiz-adv-x="681" d="M35 649v195h612v-195h-612z"/>
<glyph unicode="®" horiz-adv-x="1787" d="M78 708.5q0 356.5 227 579.5t588 223q358 0 585.5 -223t227.5 -579.5t-227.5 -579.5t-585.5 -223q-360 0 -587.5 223t-227.5 579.5zM274 708.5q0 -278.5 170 -450.5t445 -172q203 0 350 94h-133l-197 410h-147v-410h-103q-57 0 -83.5 24.5t-26.5 84.5v917h412 q154 0 235.5 -70.5t81.5 -185.5v-88q0 -78 -39 -147.5t-119 -96.5l191 -385q195 172 194 476q0 279 -169 448.5t-447 169.5q-274 0 -444.5 -170t-170.5 -448.5zM762 772h199q102 0 102 102v54q0 96 -102 96h-199v-252z"/>
<glyph unicode="¯" horiz-adv-x="1026" d="M-20 1444v194h1064v-194h-1064z"/>
<glyph unicode="°" horiz-adv-x="782" d="M98 1218.5q0 122.5 83 199.5t210 77q125 0 209 -78t84 -198q0 -123 -83 -200t-210 -77t-210 77t-83 199.5zM285 1219q0 -51 28.5 -80t75.5 -29q49 0 78 28.5t29 80.5q0 49 -30 79.5t-77 30.5t-75.5 -30.5t-28.5 -79.5z"/>
<glyph unicode="±" horiz-adv-x="1265" d="M119 672v192h385v371h239v-371h390v-192h-390v-377h-239v377h-385zM137 -61v192h977v-192h-977z"/>
<glyph unicode="²" horiz-adv-x="681" d="M74 750v90q0 98 84 159l202 148q51 39 52 102q0 35 -31 57.5t-82 22.5q-66 0 -217 -31v166q127 31 221 31q127 0 213 -64.5t86 -179.5q0 -135 -119 -227l-200 -147q-18 -16 -19 -52v-16h344v-74q0 -90 -98 -90h-320q-66 0 -91 22t-25 83z"/>
<glyph unicode="³" horiz-adv-x="681" d="M68 649v72q0 96 106 82q66 -8 121 -8q63 0 94 20.5t31 77.5q0 98 -117 98h-115q-43 0 -59 15.5t-16 54.5v96h190q98 0 98 98q0 72 -98 72q-61 0 -221 -27l-4 162q141 33 227 33q129 0 211 -58.5t80 -183.5q-2 -51 -29.5 -101t-62.5 -69q49 -25 78.5 -76t29.5 -108 q0 -279 -317 -272q-112 4 -227 22z"/>
<glyph unicode="´" horiz-adv-x="681" d="M135 1196l166 299h250l-176 -235q-47 -63 -139 -64h-101z"/>
<glyph unicode="µ" horiz-adv-x="1169" d="M143 -334l2 1399h236v-743q0 -113 41 -152t143 -39h219v934h238v-1126h-457q-111 0 -184 20v-418h-107q-70 0 -100.5 27.5t-30.5 97.5z"/>
<glyph unicode="¶" horiz-adv-x="1122" d="M59 1065q4 193 116 297t308 104h492v-1785h-94q-70 0 -100.5 28.5t-30.5 95.5v1469h-140v-1593h-92q-70 0 -100.5 28.5t-30.5 95.5v842q-139 23 -236.5 130.5t-91.5 287.5z"/>
<glyph unicode="·" horiz-adv-x="681" d="M211 594v262h260v-262h-260z"/>
<glyph unicode="¸" horiz-adv-x="681" d="M104 -467l25 139q63 -12 129 -12q111 0 111 55q0 53 -158 54l57 190h195l-33 -106q145 -27 145 -146q0 -92 -78.5 -144t-226.5 -52q-82 -1 -166 22z"/>
<glyph unicode="¹" horiz-adv-x="681" d="M184 1303v163h228q86 0 86 -77v-748h-95q-98 0 -98 100v562h-121z"/>
<glyph unicode="º" horiz-adv-x="782" d="M63 983v199q0 305 318 305q315 0 315 -305v-199q0 -305 -315 -305q-318 0 -318 305zM268 983q0 -135 113 -135q53 0 83 35t30 100v199q0 131 -113 131t-113 -131v-199z"/>
<glyph unicode="»" horiz-adv-x="1024" d="M84 76l260 450l-260 451l176 100l318 -551l-318 -551zM444 76l261 450l-261 451l177 100l317 -551l-317 -551z"/>
<glyph unicode="¼" horiz-adv-x="1638" d="M137 1303v163h228q86 0 86 -77v-748h-95q-98 0 -98 100v562h-121zM238 -90l907 1556h233l-909 -1556h-231zM864 43v143l287 482q41 68 119 67h162v-530h71v-80q0 -76 -71 -82v-133h-95q-51 0 -73.5 24.5t-22.5 79.5v29h-377zM1069 205h172v282z"/>
<glyph unicode="½" horiz-adv-x="1638" d="M137 1303v163h228q86 0 86 -77v-748h-95q-98 0 -98 100v562h-121zM164 -90l907 1556h234l-910 -1556h-231zM991 14v90q0 98 84 160l203 148q51 39 51 102q0 35 -30.5 57.5t-81.5 22.5q-66 0 -218 -31v166q127 31 222 31q127 0 213 -64.5t86 -179.5q0 -135 -119 -227 l-201 -148q-18 -14 -18 -51v-16h344v-74q0 -90 -99 -90h-319q-66 0 -91.5 21.5t-25.5 82.5z"/>
<glyph unicode="¾" horiz-adv-x="1638" d="M92 649v72q0 96 107 82q66 -8 120 -8q63 0 94 20.5t31 77.5q0 98 -116 98h-115q-43 0 -59.5 15.5t-16.5 54.5v96h191q98 0 98 98q0 72 -98 72q-61 0 -222 -27l-4 162q141 33 228 33q129 0 211 -58.5t80 -183.5q-2 -51 -30 -101t-63 -69q49 -25 79 -76t30 -108 q0 -279 -318 -272q-112 4 -227 22zM289 -90l907 1556h234l-910 -1556h-231zM883 43v143l286 482q41 68 119 67h162v-530h72v-80q0 -76 -72 -82v-133h-94q-51 0 -73.5 24.5t-22.5 79.5v29h-377zM1087 205h173v282z"/>
<glyph unicode="¿" horiz-adv-x="1124" d="M88 285q0 246 195 385l170 121q31 23 39 51t8 86v106h235v-110q0 -100 -19.5 -161t-72.5 -97l-180 -123q-137 -94 -137 -252q0 -94 83 -151.5t214 -57.5q154 0 378 68l11 -193q-184 -68 -385 -68q-233 0 -386 108t-153 288zM489 1206v260h259v-260h-259z"/>
<glyph unicode="À" horiz-adv-x="1368" d="M35 -61l512 1527h184q41 0 74 -24.5t43 -59.5l487 -1443h-243l-164 510q-63 -72 -174 -72h-334l-139 -438h-246zM467 1905h250l176 -299h-100q-92 0 -140 63zM483 575h400l-199 621z"/>
<glyph unicode="Á" horiz-adv-x="1368" d="M35 -61l512 1527h184q41 0 74 -24.5t43 -59.5l487 -1443h-243l-164 510q-63 -72 -174 -72h-334l-139 -438h-246zM475 1606l176 299h250l-186 -236q-31 -35 -59.5 -49t-80.5 -14h-100zM483 575h400l-199 621z"/>
<glyph unicode="Â" horiz-adv-x="1368" d="M35 -61l512 1527h184q41 0 74 -24.5t43 -59.5l487 -1443h-243l-164 510q-63 -72 -174 -72h-334l-139 -438h-246zM328 1599l252 295h213l245 -295h-233l-119 164l-127 -164h-231zM483 575h400l-199 621z"/>
<glyph unicode="Ã" horiz-adv-x="1368" d="M35 -61l512 1527h184q41 0 74 -24.5t43 -59.5l487 -1443h-243l-164 510q-63 -72 -174 -72h-334l-139 -438h-246zM283 1587q0 129 71.5 203t184.5 74q72 0 178 -56q82 -41 104 -41q72 0 72 97h188q0 -125 -68.5 -200t-181.5 -75q-68 0 -178 58q-82 41 -104 41 q-35 0 -56.5 -26t-23.5 -75h-186zM483 575h400l-199 621z"/>
<glyph unicode="Ä" horiz-adv-x="1368" d="M35 -61l512 1527h184q41 0 74 -24.5t43 -59.5l487 -1443h-243l-164 510q-63 -72 -174 -72h-334l-139 -438h-246zM358 1599v244h248v-244h-248zM483 575h400l-199 621zM758 1599v244h248v-244h-248z"/>
<glyph unicode="Å" horiz-adv-x="1368" d="M35 -61l512 1527h184q41 0 74 -24.5t43 -59.5l487 -1443h-243l-164 510q-63 -72 -174 -72h-334l-139 -438h-246zM451 1794q0 98 66.5 161.5t166.5 63.5q102 0 169 -63.5t67 -161.5t-67 -161.5t-169 -63.5q-100 0 -166.5 63.5t-66.5 161.5zM483 575h400l-199 621z M600 1794q0 -37 24.5 -60.5t59.5 -23.5q37 0 61.5 23.5t24.5 60.5q0 35 -25.5 60.5t-60.5 25.5t-59.5 -25.5t-24.5 -60.5z"/>
<glyph unicode="Æ" horiz-adv-x="2048" d="M35 -61l676 1527h1274v-69q0 -63 -27 -94t-105 -31h-596v-430h664v-74q0 -57 -26.5 -88t-102.5 -31h-535v-518h752v-74q0 -55 -27.5 -86.5t-101.5 -31.5h-862v493q-61 -55 -160 -55h-371l-192 -438h-260zM575 575h443v697h-135z"/>
<glyph unicode="Ç" horiz-adv-x="1193" d="M125 340v731q0 184 124 289.5t345 105.5h506v-73q0 -59 -31 -90t-121 -31h-348q-236 0 -235 -228v-690q0 -94 50 -158.5t140 -64.5h565v-76q0 -53 -32.5 -84.5t-120.5 -31.5h-205l-27 -86q145 -27 146 -146q0 -92 -79 -144t-227 -52q-82 0 -165 22l24 139q63 -12 129 -12 q111 0 111 55q0 53 -158 54l51 170h-20q-184 0 -303 110.5t-119 290.5z"/>
<glyph unicode="È" horiz-adv-x="1232" d="M152 -61v1527h966v-69q0 -63 -26.5 -94t-104.5 -31h-596v-430h664v-74q0 -57 -27 -88t-102 -31h-535v-518h752v-74q0 -55 -28 -86.5t-101 -31.5h-862zM401 1905h250l176 -299h-100q-92 0 -139 63z"/>
<glyph unicode="É" horiz-adv-x="1232" d="M152 -61v1527h966v-69q0 -63 -26.5 -94t-104.5 -31h-596v-430h664v-74q0 -57 -27 -88t-102 -31h-535v-518h752v-74q0 -55 -28 -86.5t-101 -31.5h-862zM412 1606l176 299h250l-187 -236q-31 -35 -59.5 -49t-79.5 -14h-100z"/>
<glyph unicode="Ê" horiz-adv-x="1232" d="M152 -61v1527h966v-69q0 -63 -26.5 -94t-104.5 -31h-596v-430h664v-74q0 -57 -27 -88t-102 -31h-535v-518h752v-74q0 -55 -28 -86.5t-101 -31.5h-862zM270 1599l252 295h213l246 -295h-233l-119 164l-127 -164h-232z"/>
<glyph unicode="Ë" horiz-adv-x="1232" d="M152 -61v1527h966v-69q0 -63 -26.5 -94t-104.5 -31h-596v-430h664v-74q0 -57 -27 -88t-102 -31h-535v-518h752v-74q0 -55 -28 -86.5t-101 -31.5h-862zM319 1599v244h248v-244h-248zM719 1599v244h248v-244h-248z"/>
<glyph unicode="Ì" horiz-adv-x="577" d="M66 1905h249l177 -299h-101q-92 0 -139 63zM172 63v1403h242v-1527h-113q-70 0 -99.5 28t-29.5 96z"/>
<glyph unicode="Í" horiz-adv-x="577" d="M76 1606l176 299h250l-187 -236q-31 -35 -59.5 -49t-79.5 -14h-100zM172 63v1403h242v-1527h-113q-70 0 -99.5 28t-29.5 96z"/>
<glyph unicode="Î" horiz-adv-x="577" d="M-66 1599l252 295h213l246 -295h-233l-119 164l-127 -164h-232zM172 63v1403h242v-1527h-113q-70 0 -99.5 28t-29.5 96z"/>
<glyph unicode="Ï" horiz-adv-x="577" d="M-35 1599v244h248v-244h-248zM172 63v1403h242v-1527h-113q-70 0 -99.5 28t-29.5 96zM365 1599v244h247v-244h-247z"/>
<glyph unicode="Ð" horiz-adv-x="1486" d="M63 608v195h193v663h586q246 0 370.5 -116.5t124.5 -305.5v-688q0 -188 -125 -302.5t-370 -114.5h-586v669h-193zM494 131h348q119 0 188.5 60.5t69.5 164.5v688q0 111 -68.5 169.5t-189.5 58.5h-348v-469h335v-76q0 -57 -29.5 -88t-119.5 -31h-186v-477z"/>
<glyph unicode="Ñ" horiz-adv-x="1386" d="M152 63v1403h639q231 0 336.5 -87t105.5 -320v-1120h-109q-70 0 -100.5 28.5t-30.5 95.5v998q0 121 -44 166t-158 45h-400v-1333h-110q-70 0 -99.5 28t-29.5 96zM283 1587q0 129 71.5 203t184.5 74q72 0 178 -56q82 -41 104 -41q72 0 72 97h188q0 -125 -68.5 -200 t-181.5 -75q-68 0 -178 58q-82 41 -104 41q-35 0 -56.5 -26t-23.5 -75h-186z"/>
<glyph unicode="Ò" horiz-adv-x="1437" d="M121 549v307q0 311 148.5 475t447.5 164q596 0 596 -639v-309q0 -637 -596 -637q-299 0 -447.5 164t-148.5 475zM360 547q0 -221 89.5 -328.5t267.5 -103.5q178 -4 267 103.5t89 330.5v309q0 211 -80 313q-47 61 -109.5 91t-167 30t-168 -30.5t-110.5 -94.5 q-78 -111 -78 -311v-309zM483 1905h250l176 -299h-100q-92 0 -139 63z"/>
<glyph unicode="Ó" horiz-adv-x="1437" d="M121 549v307q0 311 148.5 475t447.5 164q596 0 596 -639v-309q0 -637 -596 -637q-299 0 -447.5 164t-148.5 475zM360 547q0 -221 89.5 -328.5t267.5 -103.5q178 -4 267 103.5t89 330.5v309q0 211 -80 313q-47 61 -109.5 91t-167 30t-168 -30.5t-110.5 -94.5 q-78 -111 -78 -311v-309zM494 1606l176 299h250l-187 -236q-31 -35 -59.5 -49t-79.5 -14h-100z"/>
<glyph unicode="Ô" horiz-adv-x="1437" d="M121 549v307q0 311 148.5 475t447.5 164q596 0 596 -639v-309q0 -637 -596 -637q-299 0 -447.5 164t-148.5 475zM352 1599l252 295h213l246 -295h-234l-118 164l-127 -164h-232zM360 547q0 -221 89.5 -328.5t267.5 -103.5q178 -4 267 103.5t89 330.5v309q0 211 -80 313 q-47 61 -109.5 91t-167 30t-168 -30.5t-110.5 -94.5q-78 -111 -78 -311v-309z"/>
<glyph unicode="Õ" horiz-adv-x="1437" d="M121 549v307q0 311 148.5 475t447.5 164q596 0 596 -639v-309q0 -637 -596 -637q-299 0 -447.5 164t-148.5 475zM301 1587q0 129 71.5 203t184.5 74q72 0 178 -56q82 -41 105 -41q72 0 71 97h189q0 -125 -68.5 -200t-181.5 -75q-68 0 -178 58q-82 41 -105 41 q-35 0 -56.5 -26t-23.5 -75h-186zM360 547q0 -221 89.5 -328.5t267.5 -103.5q178 -4 267 103.5t89 330.5v309q0 211 -80 313q-47 61 -109.5 91t-167 30t-168 -30.5t-110.5 -94.5q-78 -111 -78 -311v-309z"/>
<glyph unicode="Ö" horiz-adv-x="1437" d="M121 549v307q0 311 148.5 475t447.5 164q596 0 596 -639v-309q0 -637 -596 -637q-299 0 -447.5 164t-148.5 475zM360 547q0 -221 89.5 -328.5t267.5 -103.5q178 -4 267 103.5t89 330.5v309q0 211 -80 313q-47 61 -109.5 91t-167 30t-168 -30.5t-110.5 -94.5 q-78 -111 -78 -311v-309zM403 1599v244h248v-244h-248zM803 1599v244h248v-244h-248z"/>
<glyph unicode="×" horiz-adv-x="1222" d="M162 991l147 142l303 -302l303 302l142 -144l-301 -303l303 -303l-144 -145l-303 303l-305 -303l-143 143l301 305z"/>
<glyph unicode="Ø" horiz-adv-x="1437" d="M123 549v307q0 311 148.5 475t447.5 164q113 0 196 -20l52 124h241l-90 -221q197 -158 197 -522v-309q0 -637 -596 -637q-104 0 -195 22l-57 -141h-242l97 236q-199 155 -199 522zM362 547q0 -176 58 -279l414 1008q-55 16 -115 16q-172 0 -264.5 -118.5t-92.5 -317.5 v-309zM604 127q51 -12 115 -12q356 0 356 434v309q0 162 -61 268z"/>
<glyph unicode="Ù" horiz-adv-x="1400" d="M154 346v1120h239v-1122q0 -123 44 -168t159 -45h399v1335h240v-1527h-639q-231 0 -336.5 87t-105.5 320zM487 1905h250l176 -299h-100q-92 0 -139 63z"/>
<glyph unicode="Ú" horiz-adv-x="1400" d="M154 346v1120h239v-1122q0 -123 44 -168t159 -45h399v1335h240v-1527h-639q-231 0 -336.5 87t-105.5 320zM498 1606l176 299h250l-187 -236q-31 -35 -59.5 -49t-79.5 -14h-100z"/>
<glyph unicode="Û" horiz-adv-x="1400" d="M154 346v1120h239v-1122q0 -123 44 -168t159 -45h399v1335h240v-1527h-639q-231 0 -336.5 87t-105.5 320zM356 1599l252 295h213l246 -295h-233l-119 164l-127 -164h-232z"/>
<glyph unicode="Ü" horiz-adv-x="1400" d="M154 346v1120h239v-1122q0 -123 44 -168t159 -45h399v1335h240v-1527h-639q-231 0 -336.5 87t-105.5 320zM406 1599v244h247v-244h-247zM805 1599v244h248v-244h-248z"/>
<glyph unicode="Ý" horiz-adv-x="1398" d="M33 1466h262l401 -694l404 694h262l-551 -919v-608h-106q-72 0 -103 27.5t-31 96.5v480zM496 1606l176 299h250l-187 -236q-31 -35 -59.5 -49t-79.5 -14h-100z"/>
<glyph unicode="Þ" horiz-adv-x="1269" d="M154 63v1403h237v-321h268q258 0 385 -97.5t127 -336.5q0 -244 -120.5 -347.5t-374.5 -103.5h-285v-321h-104q-72 0 -102.5 27t-30.5 97zM391 453h289q143 0 199.5 63.5t56.5 188.5q0 141 -61.5 192t-198.5 51h-285v-495z"/>
<glyph unicode="ß" horiz-adv-x="1288" d="M154 63v977q0 246 111.5 350.5t338.5 104.5q186 0 300 -88t114 -221q0 -141 -68 -264q-10 -18 -23.5 -41t-19.5 -33t-13 -24.5t-9 -21.5t-4 -16.5t-2 -19.5q0 -51 127 -154q121 -98 167 -180t46 -174q0 -150 -107.5 -249t-288.5 -99q-248 0 -362 180l162 139 q76 -123 198 -123q63 0 105.5 44.5t42.5 105.5q0 96 -105 184q-129 106 -181 171t-52 126q0 88 74 213q76 129 75 217q0 57 -50 100.5t-130 43.5q-213 0 -213 -279v-1093h-104q-70 0 -99.5 27t-29.5 97z"/>
<glyph unicode="à" horiz-adv-x="1114" d="M113 246v125q0 170 99 250.5t280 76.5q141 -2 251 -16v68q0 125 -137 124h-266q-88 0 -117.5 28t-29.5 83v80h413q375 0 375 -315v-811h-489q-178 0 -278.5 78.5t-100.5 228.5zM332 1495h250l176 -299h-101q-92 0 -139 64zM350 254q0 -123 144 -123h249v352 q-131 14 -249 15q-76 0 -110 -32t-34 -104v-108z"/>
<glyph unicode="á" horiz-adv-x="1114" d="M113 246v125q0 170 99 250.5t280 76.5q141 -2 251 -16v68q0 125 -137 124h-266q-88 0 -117.5 28t-29.5 83v80h413q375 0 375 -315v-811h-489q-178 0 -278.5 78.5t-100.5 228.5zM342 1196l176 299h250l-186 -235q-31 -35 -59.5 -49.5t-80.5 -14.5h-100zM350 254 q0 -123 144 -123h249v352q-131 14 -249 15q-76 0 -110 -32t-34 -104v-108z"/>
<glyph unicode="â" horiz-adv-x="1114" d="M113 246v125q0 170 99 250.5t280 76.5q141 -2 251 -16v68q0 125 -137 124h-266q-88 0 -117.5 28t-29.5 83v80h413q375 0 375 -315v-811h-489q-178 0 -278.5 78.5t-100.5 228.5zM201 1190l252 295h213l245 -295h-233l-119 164l-127 -164h-231zM350 254q0 -123 144 -123 h249v352q-131 14 -249 15q-76 0 -110 -32t-34 -104v-108z"/>
<glyph unicode="ã" horiz-adv-x="1114" d="M113 246v125q0 170 99 250.5t280 76.5q141 -2 251 -16v68q0 125 -137 124h-266q-88 0 -117.5 28t-29.5 83v80h413q375 0 375 -315v-811h-489q-178 0 -278.5 78.5t-100.5 228.5zM150 1178q0 129 71.5 202.5t184.5 73.5q72 0 178 -55q82 -41 104 -41q72 0 72 96h188 q0 -125 -68.5 -199.5t-181.5 -74.5q-68 0 -178 57q-82 41 -104 41q-35 0 -56.5 -25.5t-23.5 -74.5h-186zM350 254q0 -123 144 -123h249v352q-131 14 -249 15q-76 0 -110 -32t-34 -104v-108z"/>
<glyph unicode="ä" horiz-adv-x="1114" d="M113 246v125q0 170 99 250.5t280 76.5q141 -2 251 -16v68q0 125 -137 124h-266q-88 0 -117.5 28t-29.5 83v80h413q375 0 375 -315v-811h-489q-178 0 -278.5 78.5t-100.5 228.5zM252 1190v244h248v-244h-248zM350 254q0 -123 144 -123h249v352q-131 14 -249 15 q-76 0 -110 -32t-34 -104v-108zM651 1190v244h248v-244h-248z"/>
<glyph unicode="å" horiz-adv-x="1114" d="M113 246v125q0 170 99 250.5t280 76.5q141 -2 251 -16v68q0 125 -137 124h-266q-88 0 -117.5 28t-29.5 83v80h413q375 0 375 -315v-811h-489q-178 0 -278.5 78.5t-100.5 228.5zM315 1384.5q0 98.5 67 162t167 63.5q102 0 168.5 -63.5t66.5 -162t-66.5 -162t-168.5 -63.5 q-100 0 -167 63.5t-67 162zM350 254q0 -123 144 -123h249v352q-131 14 -249 15q-76 0 -110 -32t-34 -104v-108zM465 1384q0 -37 24.5 -60.5t59.5 -23.5q37 0 61.5 24t24.5 60q0 35 -25.5 60.5t-60.5 25.5t-59.5 -25.5t-24.5 -60.5z"/>
<glyph unicode="æ" horiz-adv-x="1751" d="M113 246v125q0 170 99 250.5t280 76.5q141 -2 251 -16v70q0 123 -137 122h-266q-88 0 -117.5 28t-29.5 83v80h413q186 0 271 -82q111 111 311 111q199 0 325.5 -104.5t126.5 -282.5v-129q0 -172 -174 -172h-485v-111q0 -76 46 -120t116 -44h459v-82q0 -57 -29 -83.5 t-119 -26.5h-311q-193 0 -269 92q-70 -92 -212 -92h-170q-178 0 -278.5 78.5t-100.5 228.5zM350 254q0 -123 144 -123h133q47 0 81.5 35t34.5 84v233q-131 14 -249 15q-76 0 -110 -32t-34 -104v-108zM981 598h387q35 0 35 41v68q0 86 -56.5 140t-158.5 54q-92 0 -149.5 -53 t-57.5 -135v-115z"/>
<glyph unicode="ç" horiz-adv-x="1034" d="M127 319v361q0 176 117.5 280.5t306.5 104.5h391v-70q0 -59 -26.5 -90t-114.5 -31h-250q-186 0 -186 -194v-358q0 -88 49 -139.5t137 -51.5h401v-76q0 -57 -28.5 -86.5t-118.5 -29.5h-68l-26 -86q145 -27 145 -146q0 -92 -79 -144t-226 -52q-82 0 -166 22l25 139 q63 -12 129 -12q111 0 110 55q0 53 -157 54l51 170q-186 4 -301 104t-115 276z"/>
<glyph unicode="è" horiz-adv-x="1124" d="M113 305v381q0 207 124.5 307.5t319.5 100.5q203 0 328 -97.5t125 -271.5v-147q0 -78 -45 -125t-134 -47h-481v-101q0 -80 46 -127t116 -47h459v-82q0 -57 -28 -83.5t-118 -26.5h-313q-182 0 -290.5 99t-108.5 267zM340 1495h250l176 -299h-100q-92 0 -140 64zM350 598 h389q14 0 24.5 11.5t10.5 29.5v86q0 82 -56 129t-161 47q-94 0 -150.5 -48t-56.5 -128v-127z"/>
<glyph unicode="é" horiz-adv-x="1124" d="M113 305v381q0 207 124.5 307.5t319.5 100.5q203 0 328 -97.5t125 -271.5v-147q0 -78 -45 -125t-134 -47h-481v-101q0 -80 46 -127t116 -47h459v-82q0 -57 -28 -83.5t-118 -26.5h-313q-182 0 -290.5 99t-108.5 267zM350 598h389q14 0 24.5 11.5t10.5 29.5v86 q0 82 -56 129t-161 47q-94 0 -150.5 -48t-56.5 -128v-127zM371 1196l176 299h250l-187 -235q-31 -35 -59.5 -49.5t-79.5 -14.5h-100z"/>
<glyph unicode="ê" horiz-adv-x="1124" d="M113 305v381q0 207 124.5 307.5t319.5 100.5q203 0 328 -97.5t125 -271.5v-147q0 -78 -45 -125t-134 -47h-481v-101q0 -80 46 -127t116 -47h459v-82q0 -57 -28 -83.5t-118 -26.5h-313q-182 0 -290.5 99t-108.5 267zM209 1190l252 295h213l246 -295h-234l-119 164 l-127 -164h-231zM350 598h389q14 0 24.5 11.5t10.5 29.5v86q0 82 -56 129t-161 47q-94 0 -150.5 -48t-56.5 -128v-127z"/>
<glyph unicode="ë" horiz-adv-x="1124" d="M113 305v381q0 207 124.5 307.5t319.5 100.5q203 0 328 -97.5t125 -271.5v-147q0 -78 -45 -125t-134 -47h-481v-101q0 -80 46 -127t116 -47h459v-82q0 -57 -28 -83.5t-118 -26.5h-313q-182 0 -290.5 99t-108.5 267zM260 1190v244h248v-244h-248zM350 598h389 q14 0 24.5 11.5t10.5 29.5v86q0 82 -56 129t-161 47q-94 0 -150.5 -48t-56.5 -128v-127zM659 1190v244h248v-244h-248z"/>
<glyph unicode="ì" horiz-adv-x="526" d="M39 1495h250l176 -299h-100q-92 0 -140 64zM141 66v999h238v-1126h-107q-72 0 -101.5 28.5t-29.5 98.5z"/>
<glyph unicode="í" horiz-adv-x="526" d="M39 1196l176 299h250l-186 -235q-31 -35 -60 -49.5t-80 -14.5h-100zM141 66v999h238v-1126h-107q-72 0 -101.5 28.5t-29.5 98.5z"/>
<glyph unicode="î" horiz-adv-x="526" d="M-92 1190l252 295h213l245 -295h-233l-119 164l-127 -164h-231zM141 66v999h238v-1126h-107q-72 0 -101.5 28.5t-29.5 98.5z"/>
<glyph unicode="ï" horiz-adv-x="526" d="M-59 1190v244h247v-244h-247zM141 66v999h238v-1126h-107q-72 0 -101.5 28.5t-29.5 98.5zM340 1190v244h248v-244h-248z"/>
<glyph unicode="ð" horiz-adv-x="1206" d="M125 330v252q0 195 121 307t346 112q74 0 145.5 -22.5t106.5 -54.5v51q0 182 -96 262l-218 -190l-139 141l129 115q-27 0 -83 -4.5t-93 -4.5q-59 0 -87 15.5t-28 70.5v97q156 18 303 18q94 0 183 -20l164 145l139 -143l-107 -95q162 -135 162 -428v-624 q0 -205 -126 -312.5t-353 -105.5q-227 4 -348 109.5t-121 308.5zM356 356q0 -246 238 -245q135 0 192.5 56t57.5 187v209q0 125 -61.5 183.5t-186.5 58.5q-240 0 -240 -250v-199z"/>
<glyph unicode="ñ" horiz-adv-x="1169" d="M143 66v999h494q215 0 302 -82t87 -276v-768h-108q-70 0 -100 28.5t-30 98.5v641q0 96 -32.5 131.5t-118.5 35.5h-256v-935h-105q-72 0 -102.5 28.5t-30.5 98.5zM154 1178q0 129 71.5 202.5t184.5 73.5q72 0 178 -55q82 -41 104 -41q72 0 72 96h188q0 -125 -68.5 -199.5 t-181.5 -74.5q-68 0 -178 57q-82 41 -104 41q-35 0 -56.5 -25.5t-23.5 -74.5h-186z"/>
<glyph unicode="ò" horiz-adv-x="1175" d="M123 360v285q0 449 463 449t463 -449v-285q0 -231 -116 -340.5t-347 -109.5q-463 -1 -463 450zM346 1495h250l176 -299h-100q-92 0 -140 64zM360 360q0 -135 55.5 -197.5t170 -62.5t170 60.5t55.5 199.5v285q0 129 -48 192.5t-177 63.5q-115 0 -170.5 -57.5t-55.5 -188.5 v-295z"/>
<glyph unicode="ó" horiz-adv-x="1175" d="M123 360v285q0 449 463 449t463 -449v-285q0 -231 -116 -340.5t-347 -109.5q-463 -1 -463 450zM356 1196l176 299h250l-186 -235q-31 -35 -59.5 -49.5t-79.5 -14.5h-101zM360 360q0 -135 55.5 -197.5t170 -62.5t170 60.5t55.5 199.5v285q0 129 -48 192.5t-177 63.5 q-115 0 -170.5 -57.5t-55.5 -188.5v-295z"/>
<glyph unicode="ô" horiz-adv-x="1175" d="M123 360v285q0 449 463 449t463 -449v-285q0 -231 -116 -340.5t-347 -109.5q-463 -1 -463 450zM231 1190l252 295h213l246 -295h-233l-119 164l-127 -164h-232zM360 360q0 -135 55.5 -197.5t170 -62.5t170 60.5t55.5 199.5v285q0 129 -48 192.5t-177 63.5 q-115 0 -170.5 -57.5t-55.5 -188.5v-295z"/>
<glyph unicode="õ" horiz-adv-x="1175" d="M123 360v285q0 449 463 449t463 -449v-285q0 -231 -116 -340.5t-347 -109.5q-463 -1 -463 450zM184 1178q0 129 72 202.5t184 73.5q72 0 178 -55q82 -41 105 -41q72 0 72 96h188q0 -125 -68.5 -199.5t-181.5 -74.5q-68 0 -178 57q-82 41 -104 41q-35 0 -56.5 -25.5 t-23.5 -74.5h-187zM360 360q0 -135 55.5 -197.5t170 -62.5t170 60.5t55.5 199.5v285q0 129 -48 192.5t-177 63.5q-115 0 -170.5 -57.5t-55.5 -188.5v-295z"/>
<glyph unicode="ö" horiz-adv-x="1175" d="M123 360v285q0 449 463 449t463 -449v-285q0 -231 -116 -340.5t-347 -109.5q-463 -1 -463 450zM266 1190v244h248v-244h-248zM360 360q0 -135 55.5 -197.5t170 -62.5t170 60.5t55.5 199.5v285q0 129 -48 192.5t-177 63.5q-115 0 -170.5 -57.5t-55.5 -188.5v-295z M666 1190v244h247v-244h-247z"/>
<glyph unicode="÷" horiz-adv-x="1038" d="M59 602v191h918v-191h-918zM383 205v260h258v-260h-258zM383 932v260h258v-260h-258z"/>
<glyph unicode="ø" horiz-adv-x="1167" d="M123 356v293q0 444 463 445q61 0 108 -9l70 177h225l-96 -246q156 -109 156 -367v-293q0 -446 -463 -446q-59 0 -125 10l-72 -184h-223l102 262q-145 106 -145 358zM360 356q0 -49 11 -96l250 639q-4 0 -16.5 1t-18.5 1q-106 0 -166 -64.5t-60 -187.5v-293zM532 104 q16 -4 54 -4q109 0 167 64.5t58 191.5v293q0 63 -18 115z"/>
<glyph unicode="ù" horiz-adv-x="1150" d="M133 348v717h236v-717q0 -131 40 -174t144 -43h219v934h238v-1126h-457q-223 0 -321.5 91t-98.5 318zM346 1495h250l176 -299h-100q-92 0 -140 64z"/>
<glyph unicode="ú" horiz-adv-x="1150" d="M133 348v717h236v-717q0 -131 40 -174t144 -43h219v934h238v-1126h-457q-223 0 -321.5 91t-98.5 318zM356 1196l176 299h250l-186 -235q-31 -35 -59.5 -49.5t-79.5 -14.5h-101z"/>
<glyph unicode="û" horiz-adv-x="1150" d="M133 348v717h236v-717q0 -131 40 -174t144 -43h219v934h238v-1126h-457q-223 0 -321.5 91t-98.5 318zM215 1190l252 295h213l246 -295h-234l-119 164l-127 -164h-231z"/>
<glyph unicode="ü" horiz-adv-x="1150" d="M133 348v717h236v-717q0 -131 40 -174t144 -43h219v934h238v-1126h-457q-223 0 -321.5 91t-98.5 318zM252 1190v244h248v-244h-248zM651 1190v244h248v-244h-248z"/>
<glyph unicode="ý" horiz-adv-x="1150" d="M131 305v760h238v-758q0 -92 28.5 -134t100.5 -40q96 2 274 19v913h238v-1245q0 -139 -89.5 -224t-271.5 -85h-467v81q0 66 32 92.5t112 26.5h323q123 0 123 111v133q-111 -10 -280 -16q-182 -6 -271.5 90t-89.5 276zM338 1196l176 299h250l-186 -235q-31 -35 -60 -49.5 t-80 -14.5h-100z"/>
<glyph unicode="þ" horiz-adv-x="1124" d="M154 -362v1839h237v-412h199q209 0 317.5 -92t108.5 -273v-395q0 -367 -426 -366h-199v-428h-110q-68 0 -97.5 29.5t-29.5 97.5zM391 131h199q88 0 139 49t51 144v356q0 96 -51 145t-137 49h-201v-743z"/>
<glyph unicode="ÿ" horiz-adv-x="1150" d="M131 305v760h238v-758q0 -92 28.5 -134t100.5 -40q96 2 274 19v913h238v-1245q0 -139 -89.5 -224t-271.5 -85h-467v81q0 66 32 92.5t112 26.5h323q123 0 123 111v133q-111 -10 -280 -16q-182 -6 -271.5 90t-89.5 276zM246 1190v244h248v-244h-248zM645 1190v244h248v-244 h-248z"/>
<glyph unicode="Œ" horiz-adv-x="1976" d="M123 541v323q0 631 594 631q109 0 211 -29h954v-69q0 -63 -26.5 -94t-104.5 -31h-596v-428h664v-74q0 -57 -27 -88t-102 -31h-535v-520h752v-74q0 -55 -28 -86.5t-103 -31.5h-844q-102 -29 -215 -29q-594 0 -594 631zM362 539q0 -424 355 -424q115 0 198 49v1085 q-84 43 -198 43q-172 0 -263.5 -115.5t-91.5 -312.5v-325z"/>
<glyph unicode="œ" horiz-adv-x="1839" d="M123 356v293q0 444 463 445q227 0 342 -107q121 106 327 107q203 0 328 -97.5t125 -271.5v-147q0 -78 -45 -125t-133 -47h-481v-101q0 -80 46 -127t115 -47h459v-82q0 -57 -27.5 -83.5t-117.5 -26.5h-314q-166 0 -274 86q-115 -115 -350 -115q-463 0 -463 446zM360 356 q0 -123 58.5 -189.5t167 -66.5t167 64.5t58.5 191.5v293q0 113 -55.5 182.5t-169.5 69.5q-106 0 -166 -64.5t-60 -187.5v-293zM1049 598h389q14 0 24.5 11.5t10.5 29.5v86q0 82 -56.5 129t-161.5 47q-94 0 -150 -48t-56 -128v-127z"/>
<glyph unicode="Ÿ" horiz-adv-x="1398" d="M33 1466h262l401 -694l404 694h262l-551 -919v-608h-106q-72 0 -103 27.5t-31 96.5v480zM375 1599v244h248v-244h-248zM774 1599v244h248v-244h-248z"/>
<glyph unicode="ˆ" horiz-adv-x="1030" d="M160 1190l252 295h213l245 -295h-233l-119 164l-127 -164h-231z"/>
<glyph unicode="˜" horiz-adv-x="614" d="M-399 123q0 129 71.5 202.5t184.5 73.5q72 0 178 -55q82 -41 104 -41q72 0 72 96h188q0 -125 -68.5 -199.5t-181.5 -74.5q-68 0 -178 57q-82 41 -104 41q-35 0 -56.5 -25.5t-23.5 -74.5h-186z"/>
<glyph unicode="̃" horiz-adv-x="937" d="M68 1178q0 129 71.5 202.5t184.5 73.5q72 0 178 -55q82 -41 104 -41q72 0 72 96h188q0 -125 -68.5 -199.5t-181.5 -74.5q-68 0 -178 57q-82 41 -104 41q-35 0 -56.5 -25.5t-23.5 -74.5h-186z"/>
<glyph unicode=" " horiz-adv-x="1009"/>
<glyph unicode=" " horiz-adv-x="2019"/>
<glyph unicode=" " horiz-adv-x="1009"/>
<glyph unicode=" " horiz-adv-x="2019"/>
<glyph unicode=" " horiz-adv-x="671"/>
<glyph unicode=" " horiz-adv-x="503"/>
<glyph unicode=" " horiz-adv-x="335"/>
<glyph unicode=" " horiz-adv-x="335"/>
<glyph unicode=" " horiz-adv-x="251"/>
<glyph unicode=" " horiz-adv-x="403"/>
<glyph unicode=" " horiz-adv-x="110"/>
<glyph unicode="‐" horiz-adv-x="1144" d="M135 600v193h877v-193h-877z"/>
<glyph unicode="‑" horiz-adv-x="1144" d="M135 600v193h877v-193h-877z"/>
<glyph unicode="‒" horiz-adv-x="1144" d="M135 600v193h877v-193h-877z"/>
<glyph unicode="–" horiz-adv-x="1024" d="M135 600v193h756v-193h-756z"/>
<glyph unicode="—" horiz-adv-x="2048" d="M135 600v193h1780v-193h-1780z"/>
<glyph unicode="‘" horiz-adv-x="661" d="M174 1042v224q0 106 56.5 188t156.5 123l74 -98q-113 -57 -113 -158v-39h113v-240h-287z"/>
<glyph unicode="’" horiz-adv-x="661" d="M172 1137q113 57 113 157v39h-113v240h287v-223q0 -106 -56.5 -188.5t-156.5 -123.5z"/>
<glyph unicode="“" horiz-adv-x="1003" d="M168 1042v224q0 106 56.5 188t158.5 123l72 -98q-113 -59 -113 -158v-39h113v-240h-287zM537 1042v224q0 106 56 188t157 123l73 -98q-113 -57 -112 -158v-39h112v-240h-286z"/>
<glyph unicode="”" horiz-adv-x="1003" d="M170 1130q113 57 113 158v39h-113v240h287v-224q0 -106 -56.5 -188t-156.5 -123zM539 1130q113 57 112 158v39h-112v240h286v-224q0 -106 -56 -188t-157 -123z"/>
<glyph unicode="•" horiz-adv-x="1884" d="M694 614q0 102 73 174t175 72t175 -71.5t73 -174.5q0 -104 -73 -176.5t-175 -72.5t-175 72.5t-73 176.5z"/>
<glyph unicode="…" horiz-adv-x="1677" d="M150 596v260h258v-260h-258zM709 596v260h258v-260h-258zM1268 596v260h258v-260h-258z"/>
<glyph unicode=" " horiz-adv-x="403"/>
<glyph unicode="‹" horiz-adv-x="1884" d="M330 614l1478 904v-76l-1335 -828l1335 -825v-80z"/>
<glyph unicode="›" horiz-adv-x="1884" d="M76 -211l1335 825l-1335 828v76l1478 -904l-1478 -905v80z"/>
<glyph unicode=" " horiz-adv-x="503"/>
<glyph unicode="€" horiz-adv-x="1884" d="M297 375v172h295v299h-295v172h295v53q0 184 124 289.5t345 105.5h506v-73q0 -59 -31 -90t-121 -31h-348q-236 0 -236 -228v-26h406v-172h-406v-299h406v-172h-406v-21q0 -94 50.5 -158.5t140.5 -64.5h565v-76q0 -53 -32.5 -84.5t-120.5 -31.5h-420q-184 0 -303 110.5 t-119 290.5v35h-295z"/>
<glyph unicode="™" horiz-adv-x="1884" d="M98 1276v190h703v-71q0 -68 -26.5 -93.5t-108.5 -25.5h-109v-655h-100q-68 0 -97.5 28.5t-29.5 95.5v531h-232zM856 696v770h229l185 -346q16 -16 28 0l175 346h231v-845h-143q-82 0 -82 75v420l-97 -170q-35 -59 -102.5 -59t-101.5 59l-97 170v-495h-143q-82 -1 -82 75z "/>
<glyph unicode="" horiz-adv-x="1065" d="M0 1065h1065v-1065h-1065v1065z"/>
<glyph unicode="ﬁ" horiz-adv-x="1441" d="M1042 1360v135h246v-274h-90q-66 0 -111 36.5t-45 102.5zM1047 66v999h237v-1126h-106q-72 0 -101.5 28.5t-29.5 98.5zM57 874v191h209v125q0 143 63.5 215t233.5 72h275v-66q0 -125 -150 -125h-125q-59 0 -59 -82v-139h293v-88q0 -51 -41 -77t-94 -26h-158v-935h-109 q-70 0 -99.5 28.5t-29.5 98.5v808h-209z"/>
<glyph unicode="ﬂ" horiz-adv-x="1445" d="M1045 66v1411h237v-1538h-108q-70 0 -99.5 28.5t-29.5 98.5zM57 874v191h209v125q0 143 63.5 215t233.5 72h275v-66q0 -125 -150 -125h-125q-59 0 -59 -82v-139h293v-88q0 -51 -41 -77t-94 -26h-158v-935h-109q-70 0 -99.5 28.5t-29.5 98.5v808h-209z"/>
<glyph unicode="ﬃ" horiz-adv-x="2336" d="M1937 1360v135h246v-274h-90q-66 0 -111 36.5t-45 102.5zM1942 66v999h237v-1126h-106q-72 0 -101.5 28.5t-29.5 98.5zM952 874v191h209v125q0 143 63.5 215t233.5 72h275v-66q0 -125 -150 -125h-125q-59 0 -59 -82v-139h293v-88q0 -51 -41 -77t-94 -26h-158v-935h-109 q-70 0 -99.5 28.5t-29.5 98.5v808h-209zM57 874v191h209v125q0 143 63.5 215t233.5 72h275v-66q0 -125 -150 -125h-125q-59 0 -59 -82v-139h293v-88q0 -51 -41 -77t-94 -26h-158v-935h-109q-70 0 -99.5 28.5t-29.5 98.5v808h-209z"/>
<glyph unicode="ﬄ" horiz-adv-x="2340" d="M1940 66v1411h237v-1538h-108q-70 0 -99.5 28.5t-29.5 98.5zM952 874v191h209v125q0 143 63.5 215t233.5 72h275v-66q0 -125 -150 -125h-125q-59 0 -59 -82v-139h293v-88q0 -51 -41 -77t-94 -26h-158v-935h-109q-70 0 -99.5 28.5t-29.5 98.5v808h-209zM57 874v191h209 v125q0 143 63.5 215t233.5 72h275v-66q0 -125 -150 -125h-125q-59 0 -59 -82v-139h293v-88q0 -51 -41 -77t-94 -26h-158v-935h-109q-70 0 -99.5 28.5t-29.5 98.5v808h-209z"/>
</font>
</defs>
</svg>
